<?xml version="1.0" ?><svg xmlns="http://www.w3.org/2000/svg" xmlns:xlink="http://www.w3.org/1999/xlink" version="1.1" viewBox="0 0 512 512" style="enable-background:new 0 0 512 512;" xml:space="preserve"><g id="_x34_5_x2C__Shield_x2C__durable_x2C__defence_x2C__security_x2C__weapon_x2C__durable"><g><g><path style="fill:#DC5461;" d="M334.477,185.628c-21.572-21.572-54.856-22.904-77.85-5.863     c-23.018-17.045-56.287-15.701-77.85,5.863c-23.37,23.37-23.388,61.249,0.001,84.638l70.19,70.191     c4.311,4.407,11.082,4.236,15.17,0.146l70.339-70.338C357.812,246.931,357.812,208.963,334.477,185.628z M319.451,255.239     l-62.823,62.823l-62.823-62.823c-15.068-15.066-15.082-39.505,0-54.585c15.083-15.083,39.503-15.094,54.599,0.005l0.716,0.715     c4.132,4.124,10.812,4.144,14.966,0.049l0.78-0.769c15.084-15.086,39.499-15.088,54.585,0     C334.5,215.704,334.5,240.19,319.451,255.239z"/><path style="fill:#283954;" d="M477.883,126.989c-2.197-38.129-1.945-35.878-2.419-37.527c-1.223-4.262-4.953-7.274-9.247-7.658     l-35.127-3.188c-52.107-4.726-101.514-24.088-142.877-55.991L263.064,3.214c-3.844-2.967-9.211-2.951-13.036,0.04l-25.033,19.571     c-41.154,32.175-90.434,51.859-142.513,56.924L45.41,83.361c-5.238,0.511-9.313,4.778-9.581,10.035l-1.793,35.184     c-0.187,3.285-5.492,103.884,28.625,182.616c12.75,29.397,29.454,57.35,49.647,83.082c3.635,4.629,10.316,5.41,14.919,1.799     c4.616-3.623,5.421-10.302,1.799-14.919c-19.073-24.303-34.843-50.687-46.868-78.414     c-31.991-73.827-26.967-171.961-26.907-172.931c0.111-2.061-0.371,7.281,1.334-26.189L84.54,100.9     c56.106-5.457,109.2-26.665,153.543-61.333l18.53-14.487l18.619,14.37c44.57,34.377,97.802,55.239,153.939,60.33l26.003,2.359     l1.495,26.084c0.238,4.035,5.467,99.688-25.828,173.202c-41.088,96.522-116.196,152.136-157.309,176.695l-16.586,9.904     c-10.377-6.537-54.801-28.771-100.666-75.786c-4.1-4.201-10.824-4.283-15.025-0.186c-4.2,4.097-4.283,10.824-0.186,15.025     c32.945,33.77,66.455,56.516,88.769,69.653l21.759,12.803c3.31,1.947,7.463,1.977,10.836-0.035l21.995-13.134     c43.334-25.886,122.519-84.552,165.966-186.615C483.621,231.694,478.132,131.211,477.883,126.989z"/><path style="fill:#283954;" d="M412.97,217.745c5.809,0.721,11.126-3.423,11.843-9.247c3.767-30.598,3.856-57.418,3.573-70.682     c-0.113-5.314-4.136-9.726-9.416-10.33c-56.383-6.442-110.286-27.662-155.882-61.367c-3.775-2.79-8.933-2.773-12.687,0.042     c-45.928,34.413-100.382,56.064-157.476,62.612c-5.274,0.605-9.293,5.011-9.411,10.319c-0.207,9.234-1.257,91.956,24.886,152.277     c37.611,86.759,105.667,137.555,142.888,160.113c3.401,2.062,7.669,2.051,11.061-0.029     c37.17-22.793,105.068-74.048,142.176-161.23c4.902-11.51,9.134-24.528,12.577-38.692c1.386-5.702-2.113-11.448-7.814-12.834     c-5.701-1.385-11.448,2.112-12.834,7.814c-3.17,13.037-7.032,24.943-11.48,35.388c-33.037,77.619-92.337,125.012-128.211,147.979     c-35.932-22.74-95.382-69.723-128.864-146.96c-20.466-47.221-23.013-110.175-23.188-134.237     c54.822-7.813,107.083-28.727,152.106-60.883c44.649,31.453,96.318,51.925,150.42,59.608c0,14.005-0.632,35.099-3.512,58.498     C403.006,211.726,407.146,217.028,412.97,217.745z"/></g></g></g><g id="Layer_1"/></svg>